  solid outhouse_110220m
  facet normal  0.000000e+00 -1.000000e+00  0.000000e+00
    outer loop
      vertex  -1.500000e+01 -1.500000e+01 -1.500000e+01
      vertex   1.500000e+01 -1.500000e+01 -1.500000e+01
      vertex   1.500000e+01 -1.500000e+01  1.500000e+01
    endloop
  endfacet
  facet normal  0.000000e+00 -1.000000e+00  0.000000e+00
    outer loop
      vertex  -1.500000e+01 -1.500000e+01 -1.500000e+01
      vertex   1.500000e+01 -1.500000e+01  1.500000e+01
      vertex  -1.500000e+01 -1.500000e+01  1.500000e+01
    endloop
  endfacet
  facet normal  0.000000e+00  0.000000e+00 -1.000000e+00
    outer loop
      vertex  -1.500000e+01  1.500000e+01 -1.500000e+01
      vertex   1.500000e+01  1.500000e+01 -1.500000e+01
      vertex   1.500000e+01 -1.500000e+01 -1.500000e+01
    endloop
  endfacet
  facet normal  0.000000e+00  0.000000e+00 -1.000000e+00
    outer loop
      vertex  -1.500000e+01  1.500000e+01 -1.500000e+01
      vertex   1.500000e+01 -1.500000e+01 -1.500000e+01
      vertex  -1.500000e+01 -1.500000e+01 -1.500000e+01
    endloop
  endfacet
  facet normal  1.000000e+00  0.000000e+00 -0.000000e+00
    outer loop
      vertex   1.500000e+01  1.500000e+01 -1.500000e+01
      vertex   1.500000e+01  1.500000e+01  1.500000e+01
      vertex   1.500000e+01 -1.500000e+01  1.500000e+01
    endloop
  endfacet
  facet normal  1.000000e+00  0.000000e+00  0.000000e+00
    outer loop
      vertex   1.500000e+01  1.500000e+01 -1.500000e+01
      vertex   1.500000e+01 -1.500000e+01  1.500000e+01
      vertex   1.500000e+01 -1.500000e+01 -1.500000e+01
    endloop
  endfacet
  facet normal  0.000000e+00  0.000000e+00  1.000000e+00
    outer loop
      vertex   1.500000e+01  1.500000e+01  1.500000e+01
      vertex  -1.500000e+01  1.500000e+01  1.500000e+01
      vertex  -1.500000e+01 -1.500000e+01  1.500000e+01
    endloop
  endfacet
  facet normal  0.000000e+00  0.000000e+00  1.000000e+00
    outer loop
      vertex   1.500000e+01  1.500000e+01  1.500000e+01
      vertex  -1.500000e+01 -1.500000e+01  1.500000e+01
      vertex   1.500000e+01 -1.500000e+01  1.500000e+01
    endloop
  endfacet
  facet normal -1.000000e+00  0.000000e+00 -0.000000e+00
    outer loop
      vertex  -1.500000e+01  1.500000e+01  1.500000e+01
      vertex  -1.500000e+01  1.500000e+01 -1.500000e+01
      vertex  -1.500000e+01 -1.500000e+01 -1.500000e+01
    endloop
  endfacet
  facet normal -1.000000e+00 -0.000000e+00  0.000000e+00
    outer loop
      vertex  -1.500000e+01  1.500000e+01  1.500000e+01
      vertex  -1.500000e+01 -1.500000e+01 -1.500000e+01
      vertex  -1.500000e+01 -1.500000e+01  1.500000e+01
    endloop
  endfacet
  facet normal  0.000000e+00  1.000000e+00  0.000000e+00
    outer loop
      vertex  -1.500000e+01  1.500000e+01 -1.500000e+01
      vertex  -1.500000e+01  1.500000e+01  1.500000e+01
      vertex   1.500000e+01  1.500000e+01  1.500000e+01
    endloop
  endfacet
  facet normal  0.000000e+00  1.000000e+00  0.000000e+00
    outer loop
      vertex  -1.500000e+01  1.500000e+01 -1.500000e+01
      vertex   1.500000e+01  1.500000e+01  1.500000e+01
      vertex   1.500000e+01  1.500000e+01 -1.500000e+01
    endloop
  endfacet
  endsolid outhouse_110220m